<mxfile host="app.diagrams.net" modified="2023-06-23T08:03:06.190Z" agent="Mozilla/5.0 (Macintosh; Intel Mac OS X 10_15_7) AppleWebKit/537.36 (KHTML, like Gecko) Chrome/114.0.0.0 Safari/537.36" version="21.5.0" etag="5Egt4_ZYGcBpt0gYhnOo" type="github">
  <diagram name="Page-1" id="ruD_T8q-YLkMc36Y-i32">
    <mxGraphModel>
      <root>
        <mxCell id="0" />
        <mxCell id="1" parent="0" />
      </root>
    </mxGraphModel>
  </diagram>
</mxfile>
